{"title":"The.Iron.Lady.2011.DvDScr.XviD.Feel-Free","uid":7008060,"size":1090923242,"categoryP":"video","categoryS":"movies","magnet":"?xt=urn:btih:ae9c1d1944ae6d0da4320a1e52eff7b2b8d86379&amp;dn=The.Iron.Lady.2011.DvDScr.XviD.Feel-Free&amp;tr=udp%3A%2F%2Ftracker.openbittorrent.com%3A80&amp;tr=udp%3A%2F%2Fopen.demonii.com%3A1337&amp;tr=udp%3A%2F%2Ftracker.coppersurfer.tk%3A6969&amp;tr=udp%3A%2F%2Fexodus.desync.com%3A6969","seeders":0,"leechers":1,"uploader":null,"files":9,"time":1328342255,"description":"Genre: Biography | Drama\nLanguage:English\nIMDb:http://www.imdb.com/title/tt1007029/\nSource:TARGET Thanks!\n\nFormat : AVI\nFormat/Info : Audio Video Interleave\nFile size : 1.01 GiB\nDuration : 1h 44mn\nOverall bit rate mode : Variable\nOverall bit rate : 1 384 Kbps\nWriting application : Nandub v1.0rc2\n\nVideo\nID : 0\nFormat : MPEG-4 Visual\nFormat profile : Advanced Simple@L5\nFormat settings, BVOP : 2\nFormat settings, QPel : No\nFormat settings, GMC : No warppoints\nFormat settings, Matrix : Default (H.263)\nMuxing mode : Packed bitstream\nCodec ID : XVID\nCodec ID/Hint : XviD\nDuration : 1h 44mn\nBit rate : 1 242 Kbps\nWidth : 640 pixels\nHeight : 272 pixels\nDisplay aspect ratio : 2.35:1\nFrame rate : 23.976 fps\nColor space : YUV\nChroma subsampling : 4:2:0\nBit depth : 8 bits\nScan type : Progressive\nCompression mode : Lossy\nBits/(Pixel*Frame) : 0.297\nStream size : 932 MiB (90%)\nWriting library : XviD 64\n\nAudio\nID : 1\nFormat : MPEG Audio\nFormat version : Version 1\nFormat profile : Layer 3\nMode : Joint stereo\nMode extension : MS Stereo\nCodec ID : 55\nCodec ID/Hint : MP3\nDuration : 1h 44mn\nBit rate mode : Variable\nBit rate : 128 Kbps\nChannel(s) : 2 channels\nSampling rate : 48.0 KHz\nCompression mode : Lossy\nStream size : 97.1 MiB (9%)\nAlignment : Aligned on interleaves\nInterleave, duration : 24 ms (0.58 video frame)\nInterleave, preload duration : 142 ms\nWriting library : LAME3.96r\nEncoding settings : -m j -V 4 -q 3 -lowpass 17.5 --abr 128\n\n\nPlot:\nA look at the life of Margaret Thatcher, the former Prime Minister of the United Kingdom, with a focus on the price she paid for power.\n","torrent":{"xt":"urn:btih:ae9c1d1944ae6d0da4320a1e52eff7b2b8d86379","amp;dn":"The.Iron.Lady.2011.DvDScr.XviD.Feel-Free","amp;tr":["udp%3A%2F%2Ftracker.openbittorrent.com%3A80","udp%3A%2F%2Fopen.demonii.com%3A1337","udp%3A%2F%2Ftracker.coppersurfer.tk%3A6969","udp%3A%2F%2Fexodus.desync.com%3A6969"],"infoHash":"ae9c1d1944ae6d0da4320a1e52eff7b2b8d86379","infoHashBuffer":{"type":"Buffer","data":[174,156,29,25,68,174,109,13,164,50,10,30,82,239,247,178,184,216,99,121]},"announce":[],"urlList":[]}}